<svg width="59" height="57" viewBox="0 0 59 57" fill="none" xmlns="http://www.w3.org/2000/svg">
<path d="M29.4101 56.8213C21.7991 56.8213 14.5 53.8713 9.11825 48.6203C3.73653 43.3693 0.713108 36.2474 0.713108 28.8213C0.713108 21.3952 3.73653 14.2733 9.11825 9.0223C14.5 3.77128 21.7991 0.821289 29.4101 0.821289C37.021 0.821289 44.3201 3.77128 49.7019 9.0223C55.0836 14.2733 58.107 21.3952 58.107 28.8213C58.107 36.2474 55.0836 43.3693 49.7019 48.6203C44.3201 53.8713 37.021 56.8213 29.4101 56.8213ZM41.965 30.5713C42.4406 30.5713 42.8968 30.3869 43.2332 30.0587C43.5696 29.7305 43.7585 29.2854 43.7585 28.8213C43.7585 28.3572 43.5696 27.912 43.2332 27.5839C42.8968 27.2557 42.4406 27.0713 41.965 27.0713L21.1848 27.0713L28.8863 19.5603C29.2231 19.2317 29.4123 18.786 29.4123 18.3213C29.4123 17.8566 29.2231 17.4109 28.8863 17.0823C28.5495 16.7537 28.0928 16.5691 27.6165 16.5691C27.1402 16.5691 26.6834 16.7537 26.3467 17.0823L15.5853 27.5823C15.4183 27.7448 15.2858 27.938 15.1953 28.1506C15.1049 28.3632 15.0584 28.5911 15.0584 28.8213C15.0584 29.0515 15.1049 29.2794 15.1953 29.492C15.2858 29.7046 15.4183 29.8977 15.5853 30.0603L26.3467 40.5603C26.6834 40.8889 27.1402 41.0735 27.6165 41.0735C28.0928 41.0735 28.5495 40.8889 28.8863 40.5603C29.2231 40.2317 29.4123 39.786 29.4123 39.3213C29.4123 38.8566 29.2231 38.4109 28.8863 38.0823L21.1848 30.5713L41.965 30.5713Z" fill="#00E3A5"/>
</svg>
