<svg width="58" height="57" viewBox="0 0 58 57" fill="none" xmlns="http://www.w3.org/2000/svg">
<g clip-path="url(#clip0_1_413)">
<path d="M29.0274 0.821288C36.6383 0.821288 43.9375 3.77128 49.3192 9.02229C54.7009 14.2733 57.7243 21.3952 57.7243 28.8213C57.7243 36.2473 54.7009 43.3693 49.3192 48.6203C43.9375 53.8713 36.6383 56.8213 29.0274 56.8213C21.4165 56.8213 14.1173 53.8713 8.73558 48.6203C3.35386 43.3693 0.330443 36.2474 0.330443 28.8213C0.330443 21.3952 3.35386 14.2733 8.73558 9.0223C14.1173 3.77128 21.4165 0.821288 29.0274 0.821288ZM16.4725 27.0713C15.9968 27.0713 15.5406 27.2557 15.2042 27.5839C14.8679 27.912 14.6789 28.3572 14.6789 28.8213C14.6789 29.2854 14.8679 29.7305 15.2042 30.0587C15.5406 30.3869 15.9968 30.5713 16.4725 30.5713L37.2527 30.5713L29.5511 38.0823C29.2143 38.4109 29.0251 38.8566 29.0251 39.3213C29.0251 39.786 29.2143 40.2317 29.5511 40.5603C29.8879 40.8889 30.3447 41.0735 30.8209 41.0735C31.2972 41.0735 31.754 40.8889 32.0908 40.5603L42.8521 30.0603C43.0192 29.8977 43.1517 29.7046 43.2421 29.492C43.3325 29.2794 43.3791 29.0515 43.3791 28.8213C43.3791 28.5911 43.3325 28.3632 43.2421 28.1506C43.1517 27.938 43.0192 27.7448 42.8521 27.5823L32.0908 17.0823C31.754 16.7537 31.2972 16.5691 30.8209 16.5691C30.3447 16.5691 29.8879 16.7537 29.5511 17.0823C29.2143 17.4109 29.0251 17.8566 29.0251 18.3213C29.0251 18.786 29.2143 19.2317 29.5511 19.5603L37.2526 27.0713L16.4725 27.0713Z" fill="#00E3A5"/>
</g>
<defs>
<clipPath id="clip0_1_413">
<rect width="56" height="57.3939" fill="white" transform="translate(0.330444 56.8213) rotate(-90)"/>
</clipPath>
</defs>
</svg>
